<?xml version="1.0" encoding="utf-8"?>
<!-- Generator: Adobe Illustrator 24.3.0, SVG Export Plug-In . SVG Version: 6.00 Build 0)  -->
<svg version="1.1" id="Layer_1" transform="matrix(1, 0, 0, 1, 0, 0)"
	 xmlns="http://www.w3.org/2000/svg" xmlns:xlink="http://www.w3.org/1999/xlink" x="0px" y="0px" viewBox="0 0 28.8 28.8"
	 style="enable-background:new 0 0 28.8 28.8;" xml:space="preserve">
<style type="text/css">
	.st0{fill:#A88C43;}
	.st1{fill:none;}
</style>
<g id="SVGRepo_bgCarrier">
</g>
<g id="SVGRepo_iconCarrier">
	<path class="st0" d="M26.4,2.9L1.7,12.5c-1.6,0.7-1.6,1.6-0.3,2l6.2,2l2.4,7.3c0.3,0.8,0.1,1.1,0.9,1.1c0.7,0,0.9-0.3,1.2-0.7
		c0.1-0.1,1.5-1.5,3-3l6.4,4.7c1.2,0.7,2,0.3,2.3-1.1L28,4.9C28.5,3.2,27.4,2.3,26.4,2.9z M23.2,7.5L11.4,18.2l-0.4,5l-2.4-7.3
		l14-8.8C23.1,6.7,23.6,7,23.2,7.5z"/>
	<rect x="-2.7" y="-3.8" class="st1" width="36.3" height="36.3"/>
</g>
</svg>
